<svg width="36" height="36" viewBox="0 0 36 36" fill="none" xmlns="http://www.w3.org/2000/svg">
<path d="M18.2019 30.7499C17.8827 30.7499 17.6154 30.6422 17.4 30.4268C17.1846 30.2115 17.0769 29.9442 17.0769 29.6249C17.0769 29.3057 17.1846 29.0384 17.4 28.823C17.6154 28.6077 17.8827 28.5 18.2019 28.5H28.0384C28.1634 28.5 28.2716 28.4615 28.3629 28.3846C28.4543 28.3077 28.5 28.2067 28.5 28.0817V17.5903C28.5 14.723 27.474 12.3091 25.4221 10.3485C23.3702 8.38795 20.8961 7.40768 18 7.40768C15.1038 7.40768 12.6298 8.38795 10.5778 10.3485C8.52592 12.3091 7.49996 14.723 7.49996 17.5903V25.298C7.49996 25.6173 7.39227 25.8846 7.1769 26.0999C6.96152 26.3153 6.69423 26.423 6.375 26.423C5.65578 26.423 5.03847 26.1725 4.5231 25.6716C4.0077 25.1706 3.75 24.5605 3.75 23.8413V20.9279C3.75 20.4413 3.88846 19.9956 4.16539 19.5908C4.44231 19.186 4.80385 18.8606 5.25 18.6144L5.31926 16.699C5.44231 15.0663 5.86634 13.5539 6.59134 12.1616C7.31634 10.7692 8.24614 9.5572 9.38074 8.52548C10.5154 7.49375 11.825 6.68991 13.3096 6.11396C14.7942 5.53799 16.3577 5.25 18 5.25C19.6423 5.25 21.2019 5.53799 22.6788 6.11396C24.1557 6.68991 25.4653 7.48991 26.6076 8.51396C27.7499 9.53799 28.6797 10.7462 29.397 12.1385C30.1143 13.5308 30.5422 15.0433 30.6807 16.676L30.7499 18.5538C31.1865 18.7596 31.5456 19.0538 31.8273 19.4365C32.1091 19.8192 32.2499 20.2461 32.2499 20.7173V24.0663C32.2499 24.5375 32.1091 24.9644 31.8273 25.347C31.5456 25.7297 31.1865 26.024 30.7499 26.2298V28.0817C30.7499 28.8201 30.485 29.4495 29.9552 29.9696C29.4254 30.4898 28.7865 30.7499 28.0384 30.7499H18.2019ZM13.7885 20.6538C13.4212 20.6538 13.1082 20.5293 12.8495 20.2802C12.5909 20.0312 12.4615 19.723 12.4615 19.3557C12.4615 18.9884 12.5909 18.6778 12.8495 18.424C13.1082 18.1702 13.4212 18.0432 13.7885 18.0432C14.1558 18.0432 14.4687 18.1702 14.7274 18.424C14.986 18.6778 15.1153 18.9884 15.1153 19.3557C15.1153 19.723 14.986 20.0312 14.7274 20.2802C14.4687 20.5293 14.1558 20.6538 13.7885 20.6538ZM22.2115 20.6538C21.8442 20.6538 21.5312 20.5293 21.2726 20.2802C21.0139 20.0312 20.8846 19.723 20.8846 19.3557C20.8846 18.9884 21.0139 18.6778 21.2726 18.424C21.5312 18.1702 21.8442 18.0432 22.2115 18.0432C22.5788 18.0432 22.8918 18.1702 23.1504 18.424C23.409 18.6778 23.5384 18.9884 23.5384 19.3557C23.5384 19.723 23.409 20.0312 23.1504 20.2802C22.8918 20.5293 22.5788 20.6538 22.2115 20.6538ZM9.55673 18.2999C9.40095 15.8519 10.1625 13.7572 11.8413 12.0158C13.5202 10.2745 15.5981 9.40384 18.075 9.40384C20.1557 9.40384 21.9918 10.0476 23.5831 11.3351C25.1744 12.6226 26.1403 14.2894 26.4807 16.3355C24.3499 16.3105 22.3812 15.7509 20.5745 14.6567C18.7678 13.5625 17.3807 12.0625 16.4135 10.1567C16.0327 12.0221 15.2346 13.6711 14.0192 15.1038C12.8038 16.5365 11.3163 17.6019 9.55673 18.2999Z" fill="#7C7C7C"/>
</svg>
