<svg width="36" height="36" viewBox="0 0 36 36" fill="none" xmlns="http://www.w3.org/2000/svg">
<path d="M17.9999 21.9093C17.2711 21.9093 16.6514 21.654 16.1408 21.1435C15.6302 20.6329 15.375 20.0132 15.375 19.2843C15.375 18.7959 15.4793 18.3065 15.6879 17.8161C15.8966 17.3257 16.2855 16.6421 16.8548 15.7651L17.4201 14.9286C17.5605 14.7228 17.7514 14.62 17.9927 14.62C18.2341 14.62 18.4249 14.7228 18.5653 14.9286L19.1307 15.7651C19.7154 16.6609 20.1106 17.3488 20.3163 17.8287C20.522 18.3086 20.6249 18.7938 20.6249 19.2843C20.6249 20.0132 20.3696 20.6329 19.859 21.1435C19.3485 21.654 18.7288 21.9093 17.9999 21.9093ZM4.87496 25.5007H11.8904C11.3212 25.0661 10.8024 24.5651 10.3341 23.9978C9.86586 23.4305 9.47499 22.8064 9.16151 22.1257H4.87496V25.5007ZM17.9999 25.5007C20.0749 25.5007 21.8437 24.7694 23.3062 23.3069C24.7687 21.8444 25.4999 20.0757 25.4999 18.0007C25.4999 15.9257 24.7687 14.1569 23.3062 12.6944C21.8437 11.2319 20.0749 10.5007 17.9999 10.5007C15.9249 10.5007 14.1562 11.2319 12.6937 12.6944C11.2312 14.1569 10.4999 15.9257 10.4999 18.0007C10.4999 20.0757 11.2312 21.8444 12.6937 23.3069C14.1562 24.7694 15.9249 25.5007 17.9999 25.5007ZM26.8383 13.8757H31.1249V10.5007H24.1095C24.6787 10.9353 25.1974 11.4363 25.6657 12.0036C26.134 12.5709 26.5249 13.195 26.8383 13.8757ZM4.87496 27.7507V27.9526C4.87496 28.2713 4.7671 28.5385 4.55138 28.7541C4.33565 28.9697 4.06835 29.0776 3.74948 29.0776C3.4306 29.0776 3.16347 28.9697 2.9481 28.7541C2.7327 28.5385 2.625 28.2713 2.625 27.9526V19.6738C2.625 19.355 2.73286 19.0879 2.94859 18.8722C3.16431 18.6566 3.43161 18.5488 3.75049 18.5488C4.06936 18.5488 4.3365 18.6566 4.5519 18.8722C4.76728 19.0879 4.87496 19.355 4.87496 19.6738V19.8757H8.46345C8.3846 19.568 8.32931 19.2618 8.29759 18.9569C8.26584 18.6521 8.24996 18.3334 8.24996 18.0007C8.24996 15.2846 9.19595 12.9806 11.0879 11.0887C12.9799 9.19672 15.2839 8.25073 17.9999 8.25073H31.1249V8.04879C31.1249 7.73007 31.2327 7.46289 31.4485 7.24727C31.6642 7.03164 31.9315 6.92383 32.2504 6.92383C32.5693 6.92383 32.8364 7.03164 33.0518 7.24727C33.2672 7.46289 33.3748 7.73007 33.3748 8.04879V16.3276C33.3748 16.6463 33.267 16.9135 33.0513 17.1292C32.8355 17.3448 32.5682 17.4526 32.2494 17.4526C31.9305 17.4526 31.6634 17.3448 31.448 17.1292C31.2326 16.9135 31.1249 16.6463 31.1249 16.3276V16.1257H27.5364C27.6153 16.4334 27.6705 16.7396 27.7023 17.0444C27.734 17.3492 27.7499 17.668 27.7499 18.0007C27.7499 20.7167 26.8039 23.0207 24.9119 24.9127C23.02 26.8047 20.716 27.7507 17.9999 27.7507H4.87496Z" fill="#7C7C7C"/>
</svg>
