<svg width="12" height="13" viewBox="0 0 12 13" fill="none" xmlns="http://www.w3.org/2000/svg">
<path d="M1.53863 12.9369C1.20187 12.9369 0.916829 12.8202 0.683496 12.5869C0.450163 12.3536 0.333496 12.0685 0.333496 11.7318V2.80874C0.333496 2.47199 0.450163 2.18694 0.683496 1.95361C0.916829 1.72028 1.20187 1.60361 1.53863 1.60361H2.46171V0.706159C2.46171 0.560015 2.51065 0.438009 2.60851 0.340143C2.70637 0.242287 2.82837 0.193359 2.97453 0.193359C3.12067 0.193359 3.24268 0.242287 3.34055 0.340143C3.4384 0.438009 3.48733 0.560015 3.48733 0.706159V1.60361H8.5386V0.693343C8.5386 0.551465 8.58646 0.432665 8.68218 0.336943C8.7779 0.24122 8.8967 0.193359 9.03858 0.193359C9.18046 0.193359 9.29926 0.24122 9.39498 0.336943C9.49071 0.432665 9.53858 0.551465 9.53858 0.693343V1.60361H10.4617C10.7984 1.60361 11.0835 1.72028 11.3168 1.95361C11.5501 2.18694 11.6668 2.47199 11.6668 2.80874V11.7318C11.6668 12.0685 11.5501 12.3536 11.3168 12.5869C11.0835 12.8202 10.7984 12.9369 10.4617 12.9369H1.53863ZM1.53863 11.9369H10.4617C10.513 11.9369 10.56 11.9156 10.6027 11.8728C10.6454 11.8301 10.6668 11.7831 10.6668 11.7318V5.47541H1.33348V11.7318C1.33348 11.7831 1.35485 11.8301 1.39758 11.8728C1.44032 11.9156 1.48734 11.9369 1.53863 11.9369ZM1.33348 4.47543H10.6668V2.80874C10.6668 2.75745 10.6454 2.71044 10.6027 2.66769C10.56 2.62496 10.513 2.60359 10.4617 2.60359H1.53863C1.48734 2.60359 1.44032 2.62496 1.39758 2.66769C1.35485 2.71044 1.33348 2.75745 1.33348 2.80874V4.47543Z" fill="#2196F3"/>
</svg>
