<svg width="17" height="17" viewBox="0 0 17 17" fill="none" xmlns="http://www.w3.org/2000/svg">
<path d="M10.0684 16.3622C9.91348 16.4466 9.7551 16.46 9.59324 16.4023C9.43139 16.3446 9.30827 16.2383 9.22387 16.0834L7.89374 13.4231C7.80934 13.2682 7.79598 13.1098 7.85368 12.9479C7.91136 12.7861 8.01766 12.663 8.17257 12.5786C8.32748 12.4942 8.48719 12.4821 8.65172 12.5425C8.81625 12.6029 8.94071 12.7105 9.02512 12.8654L10.3552 15.5177C10.4396 15.6726 10.4517 15.831 10.3913 15.9928C10.3309 16.1547 10.2233 16.2778 10.0684 16.3622ZM15.0764 16.3622C14.9215 16.4466 14.7631 16.46 14.6013 16.4023C14.4394 16.3446 14.3163 16.2383 14.2319 16.0834L12.9017 13.4231C12.8173 13.2682 12.804 13.1098 12.8617 12.9479C12.9194 12.7861 13.0257 12.663 13.1806 12.5786C13.3355 12.4942 13.4952 12.4821 13.6597 12.5425C13.8243 12.6029 13.9487 12.7105 14.0331 12.8654L15.3633 15.5177C15.4477 15.6726 15.4597 15.831 15.3993 15.9928C15.339 16.1547 15.2313 16.2778 15.0764 16.3622ZM5.06839 16.3622C4.91348 16.4466 4.75377 16.46 4.58924 16.4023C4.42471 16.3446 4.30025 16.2383 4.21585 16.0834L2.88572 13.4231C2.80132 13.2682 2.7893 13.1098 2.84966 12.9479C2.91002 12.7861 3.01766 12.663 3.17257 12.5786C3.32748 12.4942 3.48586 12.4821 3.64772 12.5425C3.80958 12.6029 3.93271 12.7105 4.0171 12.8654L5.34724 15.5177C5.43164 15.6726 5.445 15.831 5.3873 15.9928C5.32961 16.1547 5.2233 16.2778 5.06839 16.3622ZM4.74949 11.3574C3.53902 11.3574 2.50724 10.9309 1.65416 10.0778C0.80106 9.22466 0.374512 8.19287 0.374512 6.9824C0.374512 5.86703 0.747102 4.89748 1.49228 4.07376C2.23748 3.25005 3.16456 2.76981 4.27353 2.63305C4.70195 1.84673 5.28822 1.22921 6.03234 0.780485C6.77647 0.331776 7.59885 0.107422 8.49949 0.107422C9.72278 0.107422 10.7802 0.505387 11.6718 1.30132C12.5633 2.09726 13.093 3.08978 13.2607 4.27888C14.2511 4.35153 15.0593 4.72734 15.6854 5.4063C16.3114 6.08524 16.6245 6.88839 16.6245 7.81573C16.6245 8.79864 16.2799 9.63464 15.5908 10.3237C14.9017 11.0128 14.0657 11.3574 13.0828 11.3574L4.74949 11.3574ZM4.74949 10.1074H13.0828C13.7196 10.1074 14.2607 9.88469 14.7062 9.43917C15.1518 8.99364 15.3745 8.45251 15.3745 7.81576C15.3745 7.17901 15.1518 6.63787 14.7062 6.19234C14.2607 5.74683 13.7196 5.52407 13.0828 5.52407H12.0412V4.89907C12.0412 3.92364 11.6948 3.0895 11.0019 2.39665C10.3091 1.7038 9.47492 1.35738 8.49949 1.35738C7.79009 1.35738 7.14372 1.54996 6.56039 1.93511C5.97704 2.32026 5.53847 2.8371 5.24468 3.48561L5.09243 3.85738H4.70782C3.85739 3.88516 3.13089 4.20033 2.52832 4.8029C1.92575 5.40547 1.62447 6.13197 1.62447 6.9824C1.62447 7.84672 1.92923 8.58364 2.53874 9.19315C3.14825 9.80267 3.88517 10.1074 4.74949 10.1074V10.1074Z" fill="#87BEEE"/>
</svg>
