<svg width="36" height="36" viewBox="0 0 36 36" fill="none" xmlns="http://www.w3.org/2000/svg">
<path d="M17.9996 31.1258C17.6807 31.1258 17.4136 31.018 17.1982 30.8023C16.9829 30.5867 16.8752 30.3196 16.8752 30.0008V19.221C15.3713 19.221 13.93 18.9364 12.5512 18.3671C11.1723 17.7979 9.95405 16.9845 8.89637 15.9268C7.83867 14.8691 7.03146 13.6508 6.47474 12.272C5.91801 10.8931 5.63965 9.45181 5.63965 7.94796V7.02493C5.63965 6.64488 5.76819 6.3263 6.02526 6.0692C6.28236 5.81213 6.60094 5.68359 6.98099 5.68359H7.90401C9.37526 5.68359 10.7998 5.97061 12.1776 6.54463C13.5554 7.11868 14.7732 7.93454 15.8309 8.99222C16.6155 9.77684 17.2593 10.6533 17.7622 11.6216C18.265 12.5898 18.6251 13.6182 18.8424 14.7067C19.0155 14.4067 19.2083 14.1225 19.4208 13.8542C19.6333 13.586 19.8703 13.3211 20.1319 13.0595C21.1863 12.0036 22.4048 11.1881 23.7874 10.6132C25.1699 10.0383 26.611 9.75084 28.1107 9.75084H29.0337C29.4138 9.75084 29.7323 9.87939 29.9894 10.1365C30.2465 10.3936 30.3751 10.7122 30.3751 11.0922V12.0152C30.3751 13.5149 30.0876 14.956 29.5127 16.3385C28.9378 17.7211 28.1223 18.9396 27.0664 19.994C26.0087 21.0517 24.7967 21.8589 23.4304 22.4156C22.064 22.9724 20.6289 23.2508 19.1251 23.2508V30.0008C19.1251 30.3196 19.0172 30.5867 18.8015 30.8023C18.5858 31.018 18.3185 31.1258 17.9996 31.1258ZM16.8896 16.9335C16.8896 15.7335 16.6583 14.5898 16.1958 13.5023C15.7333 12.4148 15.0771 11.446 14.2271 10.596C13.3771 9.74602 12.4083 9.08977 11.3208 8.62727C10.2333 8.16477 9.08957 7.93352 7.88957 7.93352C7.88957 9.13352 8.11457 10.2835 8.56457 11.3835C9.01457 12.4835 9.66457 13.4585 10.5146 14.3085C11.3646 15.1585 12.3396 15.8085 13.4396 16.2585C14.5396 16.7085 15.6896 16.9335 16.8896 16.9335ZM19.1251 21.0008C20.3251 21.0008 21.4689 20.7758 22.5564 20.3258C23.6439 19.8758 24.6126 19.2258 25.4626 18.3758C26.3126 17.5258 26.9689 16.5508 27.4314 15.4508C27.8939 14.3508 28.1251 13.2008 28.1251 12.0008C26.9251 12.0008 25.7751 12.2321 24.6751 12.6946C23.5751 13.1571 22.6001 13.8133 21.7501 14.6633C20.9001 15.5133 20.2501 16.4821 19.8001 17.5696C19.3501 18.6571 19.1251 19.8008 19.1251 21.0008Z" fill="#7C7C7C"/>
</svg>
