<svg width="24" height="17" viewBox="0 0 24 17" fill="none" xmlns="http://www.w3.org/2000/svg">
<path d="M9.032 16.547C8.75774 16.547 8.51204 16.4662 8.29491 16.3047C8.07779 16.1432 7.91855 15.9377 7.81722 15.688L5.38986 9.46371H1.31719C1.08108 9.46371 0.883174 9.38382 0.72347 9.22404C0.563748 9.06425 0.483887 8.86625 0.483887 8.63004C0.483887 8.39382 0.563738 8.19594 0.723442 8.0364C0.883164 7.87687 1.08108 7.7971 1.31719 7.7971H5.8578C6.07004 7.7971 6.25701 7.85657 6.41869 7.97551C6.58038 8.09446 6.70395 8.25079 6.78941 8.44451L9.03086 14.2116L14.0137 1.56207C14.1148 1.31246 14.2736 1.1069 14.4901 0.945404C14.7066 0.783886 14.952 0.703125 15.2263 0.703125C15.5005 0.703125 15.7462 0.783886 15.9634 0.945404C16.1805 1.1069 16.3397 1.31246 16.4411 1.56207L18.8898 7.7971H22.9624C23.1986 7.7971 23.3965 7.87699 23.5562 8.03676C23.7159 8.19656 23.7958 8.39456 23.7958 8.63076C23.7958 8.86699 23.7159 9.06487 23.5562 9.2244C23.3965 9.38394 23.1986 9.46371 22.9624 9.46371H18.4112C18.1965 9.46371 18.0107 9.40424 17.8538 9.28529C17.6969 9.16635 17.5757 9.01001 17.4902 8.81629L15.2274 3.03854L10.2445 15.688C10.1435 15.9377 9.98468 16.1432 9.76817 16.3047C9.55165 16.4662 9.30626 16.547 9.032 16.547Z" fill="#CCADF4"/>
</svg>
