<svg width="36" height="36" viewBox="0 0 36 36"  xmlns="http://www.w3.org/2000/svg">
<path d="M7.49996 16.5C6.88651 16.5 6.35816 16.2783 5.91491 15.8351C5.47164 15.3918 5.25 14.8635 5.25 14.25V7.49996C5.25 6.88651 5.47164 6.35816 5.91491 5.91491C6.35816 5.47164 6.88651 5.25 7.49996 5.25H14.25C14.8635 5.25 15.3918 5.47164 15.8351 5.91491C16.2783 6.35816 16.5 6.88651 16.5 7.49996V14.25C16.5 14.8635 16.2783 15.3918 15.8351 15.8351C15.3918 16.2783 14.8635 16.5 14.25 16.5H7.49996ZM7.49996 30.7499C6.88651 30.7499 6.35816 30.5283 5.91491 30.085C5.47164 29.6418 5.25 29.1134 5.25 28.5V21.7499C5.25 21.1365 5.47164 20.6081 5.91491 20.1648C6.35816 19.7216 6.88651 19.5 7.49996 19.5H14.25C14.8635 19.5 15.3918 19.7216 15.8351 20.1648C16.2783 20.6081 16.5 21.1365 16.5 21.7499V28.5C16.5 29.1134 16.2783 29.6418 15.8351 30.085C15.3918 30.5283 14.8635 30.7499 14.25 30.7499H7.49996ZM21.7499 16.5C21.1365 16.5 20.6081 16.2783 20.1648 15.8351C19.7216 15.3918 19.5 14.8635 19.5 14.25V7.49996C19.5 6.88651 19.7216 6.35816 20.1648 5.91491C20.6081 5.47164 21.1365 5.25 21.7499 5.25H28.5C29.1134 5.25 29.6418 5.47164 30.085 5.91491C30.5283 6.35816 30.7499 6.88651 30.7499 7.49996V14.25C30.7499 14.8635 30.5283 15.3918 30.085 15.8351C29.6418 16.2783 29.1134 16.5 28.5 16.5H21.7499ZM21.7499 30.7499C21.1365 30.7499 20.6081 30.5283 20.1648 30.085C19.7216 29.6418 19.5 29.1134 19.5 28.5V21.7499C19.5 21.1365 19.7216 20.6081 20.1648 20.1648C20.6081 19.7216 21.1365 19.5 21.7499 19.5H28.5C29.1134 19.5 29.6418 19.7216 30.085 20.1648C30.5283 20.6081 30.7499 21.1365 30.7499 21.7499V28.5C30.7499 29.1134 30.5283 29.6418 30.085 30.085C29.6418 30.5283 29.1134 30.7499 28.5 30.7499H21.7499Z" />
</svg>
