<svg width="36" height="36" viewBox="0 0 36 36" fill="none" xmlns="http://www.w3.org/2000/svg">
<path d="M27.2076 29.564L20.123 22.4793L22.4941 20.1082L29.5788 27.1929C29.898 27.5121 30.0576 27.9073 30.0576 28.3784C30.0576 28.8496 29.898 29.2448 29.5788 29.564C29.2595 29.8832 28.8643 30.0428 28.3932 30.0428C27.9221 30.0428 27.5269 29.8832 27.2076 29.564ZM6.43552 29.564C6.1163 29.2448 5.95669 28.8496 5.95669 28.3784C5.95669 27.9073 6.1163 27.5121 6.43552 27.1929L15.6432 17.9851L12.1413 14.4976C11.8951 14.7438 11.5836 14.8668 11.2066 14.8668C10.8297 14.8668 10.5182 14.7438 10.272 14.4976L9.53936 13.7505V16.8803C9.53936 17.1918 9.40139 17.4029 9.12544 17.5134C8.84946 17.624 8.6009 17.5687 8.37975 17.3476L4.59517 13.563C4.37402 13.3418 4.31874 13.0933 4.42931 12.8173C4.53989 12.5414 4.75094 12.4034 5.06246 12.4034H8.19225L7.49707 11.7082C7.22592 11.4371 7.09035 11.1183 7.09035 10.752C7.09035 10.3856 7.22592 10.0669 7.49707 9.79571L10.8201 6.47269C11.2431 6.04964 11.7013 5.74004 12.1946 5.54389C12.6878 5.34771 13.2008 5.24962 13.7335 5.24962C14.1566 5.24962 14.5556 5.31021 14.9306 5.43139C15.3056 5.55254 15.6719 5.74388 16.0296 6.0054C16.2008 6.12078 16.295 6.27895 16.3123 6.47993C16.3296 6.68088 16.2604 6.85924 16.1046 7.01501L13.6873 9.4323L14.5123 10.2573C14.7585 10.5035 14.8816 10.815 14.8816 11.1919C14.8816 11.5688 14.7585 11.8803 14.5123 12.1265L18.0144 15.6141L21.6201 12.0083C21.4528 11.7044 21.3307 11.3905 21.2538 11.0664C21.1769 10.7424 21.1384 10.4015 21.1384 10.0438C21.1384 8.69385 21.6038 7.55348 22.5345 6.62273C23.4653 5.69195 24.6057 5.22656 25.9557 5.22656C26.1268 5.22656 26.2831 5.23041 26.4244 5.23811C26.5658 5.24579 26.7143 5.26983 26.8701 5.31023C27.0566 5.3756 27.1787 5.50781 27.2364 5.70686C27.2941 5.90589 27.2499 6.07847 27.1037 6.22462L24.8105 8.5179C24.6701 8.65828 24.5999 8.81885 24.5999 8.99962C24.5999 9.18037 24.6701 9.34095 24.8105 9.48135L26.5182 11.189C26.6586 11.3294 26.8191 11.3996 26.9999 11.3996C27.1807 11.3996 27.3412 11.3294 27.4816 11.189L29.7749 8.89579C29.921 8.74964 30.0936 8.70156 30.2927 8.75156C30.4917 8.80156 30.6239 8.92753 30.6893 9.12945C30.7297 9.2852 30.7537 9.43375 30.7614 9.5751C30.7691 9.71645 30.773 9.8727 30.773 10.0438C30.773 11.3938 30.3076 12.5342 29.3768 13.465C28.446 14.3957 27.3057 14.8611 25.9557 14.8611C25.598 14.8611 25.2571 14.8265 24.9331 14.7573C24.609 14.688 24.2951 14.5621 23.9912 14.3794L8.80661 29.564C8.48739 29.8832 8.09221 30.0428 7.62109 30.0428C7.14994 30.0428 6.75475 29.8832 6.43552 29.564Z" fill="#7C7C7C"/>
</svg>
