<svg width="27" height="27" viewBox="0 0 27 27" fill="none" xmlns="http://www.w3.org/2000/svg">
<path d="M13.6292 23.3519C13.393 23.3519 13.1951 23.2721 13.0356 23.1123C12.876 22.9526 12.7962 22.7547 12.7962 22.5186V14.5336C11.6823 14.5336 10.6146 14.3227 9.59327 13.9011C8.5719 13.4794 7.66948 12.8769 6.88602 12.0934C6.10254 11.3099 5.50461 10.4075 5.09222 9.38614C4.67983 8.36479 4.47363 7.29713 4.47363 6.18316V5.49944C4.47363 5.21792 4.56885 4.98194 4.75927 4.7915C4.94972 4.60107 5.1857 4.50586 5.46722 4.50586H6.15094C7.24075 4.50586 8.29597 4.71846 9.31658 5.14366C10.3372 5.56889 11.2392 6.17323 12.0227 6.95669C12.6039 7.5379 13.0808 8.18712 13.4533 8.90436C13.8258 9.6216 14.0925 10.3833 14.2535 11.1896C14.3817 10.9674 14.5245 10.7569 14.6819 10.5582C14.8393 10.3595 15.0149 10.1632 15.2086 9.9695C15.9897 9.18731 16.8923 8.58329 17.9164 8.15744C18.9405 7.73157 20.008 7.51864 21.1189 7.51864H21.8026C22.0841 7.51864 22.3201 7.61386 22.5105 7.8043C22.7009 7.99475 22.7962 8.23072 22.7962 8.51222V9.19597C22.7962 10.3068 22.5832 11.3743 22.1574 12.3984C21.7315 13.4225 21.1275 14.3251 20.3453 15.1062C19.5618 15.8897 18.6641 16.4876 17.6519 16.9C16.6398 17.3124 15.5768 17.5186 14.4629 17.5186V22.5186C14.4629 22.7547 14.383 22.9526 14.2232 23.1123C14.0634 23.2721 13.8654 23.3519 13.6292 23.3519ZM12.8069 12.8391C12.8069 11.9502 12.6356 11.103 12.293 10.2975C11.9504 9.49191 11.4643 8.77432 10.8347 8.14469C10.2051 7.51506 9.48747 7.02895 8.68191 6.68636C7.87636 6.34377 7.02913 6.17247 6.14024 6.17247C6.14024 7.06136 6.30691 7.91321 6.64024 8.72803C6.97358 9.54284 7.45506 10.2651 8.08469 10.8947C8.71432 11.5243 9.43654 12.0058 10.2514 12.3391C11.0662 12.6725 11.918 12.8391 12.8069 12.8391ZM14.4629 15.8519C15.3517 15.8519 16.199 15.6853 17.0045 15.3519C17.8101 15.0186 18.5277 14.5371 19.1573 13.9075C19.7869 13.2779 20.273 12.5556 20.6156 11.7408C20.9582 10.926 21.1295 10.0742 21.1295 9.18528C20.2406 9.18528 19.3888 9.35657 18.574 9.69916C17.7592 10.0418 17.0369 10.5279 16.4073 11.1575C15.7777 11.7871 15.2962 12.5047 14.9629 13.3103C14.6295 14.1158 14.4629 14.9631 14.4629 15.8519Z" fill="#66BB6A"/>
</svg>
