<svg width="36" height="36" viewBox="0 0 36 36" fill="none" xmlns="http://www.w3.org/2000/svg">
<path d="M20.123 30.4153L11.2154 21.1326C11.1096 21.0269 11.0264 20.8995 10.9659 20.7504C10.9053 20.6014 10.875 20.4437 10.875 20.2774V19.5288C10.875 19.1774 10.9939 18.8828 11.2316 18.645C11.4693 18.4073 11.7639 18.2885 12.1153 18.2885H15.75C17.1711 18.2885 18.4327 17.8332 19.5346 16.9226C20.6365 16.012 21.2442 14.7942 21.3577 13.2692H10.5C10.1812 13.2692 9.91404 13.1613 9.69844 12.9456C9.48281 12.7299 9.375 12.4626 9.375 12.1437C9.375 11.8248 9.48281 11.5577 9.69844 11.3423C9.91404 11.1269 10.1812 11.0192 10.5 11.0192H21.0519C20.6846 9.99038 20.0221 9.14661 19.0644 8.48794C18.1067 7.82929 17.0019 7.49996 15.75 7.49996H10.5C10.1812 7.49996 9.91404 7.3921 9.69844 7.17638C9.48281 6.96068 9.375 6.69338 9.375 6.37448C9.375 6.0556 9.48281 5.78848 9.69844 5.5731C9.91404 5.3577 10.1812 5.25 10.5 5.25H25.5C25.8187 5.25 26.0859 5.35786 26.3015 5.57359C26.5171 5.78931 26.6249 6.05661 26.6249 6.37549C26.6249 6.69439 26.5171 6.96153 26.3015 7.1769C26.0859 7.39228 25.8187 7.49996 25.5 7.49996H21.2307C21.7634 7.92496 22.2297 8.44275 22.6298 9.05333C23.0297 9.66393 23.2999 10.3192 23.4403 11.0192H25.5C25.8187 11.0192 26.0859 11.1271 26.3015 11.3428C26.5171 11.5585 26.6249 11.8258 26.6249 12.1447C26.6249 12.4636 26.5171 12.7307 26.3015 12.9461C26.0859 13.1615 25.8187 13.2692 25.5 13.2692H23.6307C23.5269 15.3942 22.7096 17.137 21.1788 18.4976C19.648 19.8581 17.8384 20.5384 15.75 20.5384H13.7826L21.7499 28.8346C22.0942 29.1942 22.1687 29.6033 21.9735 30.062C21.7783 30.5206 21.4329 30.7499 20.9373 30.7499C20.7848 30.7499 20.6389 30.722 20.4995 30.6663C20.3601 30.6105 20.2346 30.5268 20.123 30.4153Z" fill="#7C7C7C"/>
</svg>
