<svg width="18" height="10" viewBox="0 0 18 10" fill="none" xmlns="http://www.w3.org/2000/svg">
<path d="M3.45784 8.44113C3.03904 8.44113 2.71185 8.53354 2.47626 8.71836C2.24069 8.90319 1.92205 9.05116 1.52035 9.16228C1.35689 9.20715 1.20839 9.17323 1.07484 9.0605C0.941289 8.9478 0.874512 8.80277 0.874512 8.62542C0.874512 8.44274 0.934338 8.28463 1.05399 8.15109C1.17364 8.01753 1.31627 7.91123 1.48187 7.83217C1.734 7.71252 1.99015 7.57577 2.2503 7.42192C2.51044 7.26807 2.91295 7.19115 3.45782 7.19115C4.2185 7.19115 4.73533 7.33004 5.0083 7.60782C5.28128 7.8856 5.68379 8.02448 6.21584 8.02448C6.76498 8.02448 7.17604 7.8856 7.44901 7.60782C7.72198 7.33004 8.23881 7.19115 8.99949 7.19115C9.74307 7.19115 10.2599 7.33004 10.55 7.60782C10.84 7.8856 11.2511 8.02448 11.7831 8.02448C12.3323 8.02448 12.7391 7.8856 13.0035 7.60782C13.2679 7.33004 13.7805 7.19115 14.5412 7.19115C15.086 7.19115 15.4885 7.26807 15.7487 7.42192C16.0088 7.57577 16.265 7.71252 16.5171 7.83217C16.6827 7.91123 16.8253 8.01753 16.945 8.15109C17.0646 8.28463 17.1245 8.44274 17.1245 8.62542C17.1245 8.80277 17.0598 8.9478 16.9306 9.0605C16.8013 9.17323 16.6549 9.20715 16.4915 9.16228C16.0951 9.05116 15.773 8.90319 15.5251 8.71836C15.2773 8.53354 14.9493 8.44113 14.5412 8.44113C14.0144 8.44113 13.6133 8.58002 13.3376 8.8578C13.062 9.13557 12.5438 9.27446 11.7831 9.27446C11.0396 9.27446 10.5227 9.13557 10.2327 8.8578C9.94261 8.58002 9.53155 8.44113 8.99949 8.44113C8.45034 8.44113 8.03928 8.58002 7.7663 8.8578C7.49334 9.13557 6.97653 9.27446 6.21584 9.27446C5.45516 9.27446 4.94128 9.13557 4.67418 8.8578C4.40708 8.58002 4.00163 8.44113 3.45782 8.44113H3.45784ZM3.45784 5.20394C3.03904 5.20394 2.70971 5.29636 2.46987 5.48119C2.23 5.66603 1.90923 5.814 1.50753 5.92511C1.34407 5.96997 1.19771 5.93605 1.06843 5.82334C0.939164 5.71063 0.874533 5.5656 0.874533 5.38826C0.874533 5.20557 0.934359 5.04746 1.05401 4.9139C1.17366 4.78036 1.31629 4.67406 1.48189 4.595C1.73403 4.47535 1.99017 4.3386 2.25032 4.18475C2.51046 4.03091 2.91297 3.95398 3.45784 3.95398C4.20143 3.95398 4.71398 4.09287 4.99549 4.37065C5.27702 4.64843 5.68381 4.78732 6.21587 4.78732C6.765 4.78732 7.17606 4.64843 7.44903 4.37065C7.722 4.09287 8.23883 3.95398 8.99951 3.95398C9.74309 3.95398 10.2578 4.09287 10.5436 4.37065C10.8294 4.64843 11.234 4.78732 11.7575 4.78732C12.3067 4.78732 12.7177 4.64843 12.9907 4.37065C13.2637 4.09287 13.7805 3.95398 14.5412 3.95398C15.069 3.95398 15.4651 4.03091 15.7295 4.18475C15.9939 4.3386 16.2522 4.47535 16.5043 4.595C16.6785 4.67406 16.8254 4.78036 16.945 4.9139C17.0647 5.04746 17.1245 5.20557 17.1245 5.38826C17.1245 5.5656 17.0577 5.71063 16.9242 5.82334C16.7906 5.93605 16.6421 5.96997 16.4787 5.92511C16.0823 5.814 15.7623 5.66603 15.5187 5.48119C15.2752 5.29636 14.9493 5.20394 14.5412 5.20394C14.0145 5.20394 13.6133 5.34283 13.3377 5.62061C13.062 5.89839 12.5438 6.03728 11.7832 6.03728C11.0396 6.03728 10.5228 5.89839 10.2327 5.62061C9.94263 5.34283 9.53157 5.20394 8.99951 5.20394C8.45036 5.20394 8.04357 5.34283 7.77916 5.62061C7.51473 5.89839 7.00217 6.03728 6.24149 6.03728C5.48081 6.03728 4.95838 5.89839 4.6742 5.62061C4.39 5.34283 3.98455 5.20394 3.45784 5.20394ZM3.45784 1.96678C3.04439 1.96678 2.71639 2.05785 2.47387 2.24C2.23134 2.42217 1.91189 2.56881 1.51553 2.67992C1.34674 2.72478 1.19771 2.6922 1.06845 2.58217C0.939158 2.47213 0.874512 2.32843 0.874512 2.15109C0.874512 1.96839 0.934338 1.81028 1.05399 1.67673C1.17364 1.54319 1.31627 1.43689 1.48187 1.35784C1.734 1.23817 1.99015 1.10141 2.2503 0.947567C2.51044 0.79372 2.91295 0.716797 3.45782 0.716797C4.20141 0.716797 4.71396 0.855686 4.99547 1.13346C5.277 1.41124 5.68379 1.55013 6.21584 1.55013C6.76498 1.55013 7.17604 1.41124 7.44901 1.13346C7.72198 0.855686 8.23881 0.716797 8.99949 0.716797C9.74307 0.716797 10.2578 0.855686 10.5436 1.13346C10.8293 1.41124 11.234 1.55013 11.7575 1.55013C12.3066 1.55013 12.7177 1.41124 12.9907 1.13346C13.2636 0.855686 13.7805 0.716797 14.5412 0.716797C15.0689 0.716797 15.465 0.79372 15.7294 0.947567C15.9939 1.10141 16.2522 1.23817 16.5043 1.35784C16.6784 1.43689 16.8253 1.54319 16.945 1.67673C17.0646 1.81028 17.1245 1.96839 17.1245 2.15109C17.1245 2.32843 17.0577 2.47346 16.9242 2.58617C16.7906 2.69888 16.6421 2.7328 16.4787 2.68792C16.0823 2.57681 15.7623 2.42884 15.5187 2.24402C15.2752 2.05919 14.9493 1.96678 14.5412 1.96678C14.0145 1.96678 13.6133 2.10566 13.3377 2.38344C13.062 2.66122 12.5438 2.80011 11.7832 2.80011C11.0396 2.80011 10.5228 2.66122 10.2327 2.38344C9.94263 2.10566 9.53157 1.96678 8.99951 1.96678C8.45036 1.96678 8.04357 2.10566 7.77916 2.38344C7.51473 2.66122 7.00217 2.80011 6.24149 2.80011C5.48081 2.80011 4.95838 2.66122 4.6742 2.38344C4.39 2.10566 3.98455 1.96678 3.45784 1.96678Z" fill="#87BEEE"/>
</svg>
