<svg width="36" height="36" viewBox="0 0 36 36" fill="none" xmlns="http://www.w3.org/2000/svg">
<path d="M8.025 24.9526C7.27115 24.9526 6.6822 25.119 6.25815 25.4516C5.83413 25.7843 5.26057 26.0507 4.5375 26.2507C4.24327 26.3315 3.97597 26.2704 3.7356 26.0675C3.4952 25.8646 3.375 25.6036 3.375 25.2844C3.375 24.9555 3.48269 24.6709 3.69806 24.4306C3.91344 24.1902 4.17016 23.9988 4.46824 23.8565C4.92209 23.6411 5.38315 23.395 5.85142 23.1181C6.31967 22.8411 7.04419 22.7027 8.02496 22.7027C9.39419 22.7027 10.3245 22.9527 10.8158 23.4527C11.3072 23.9527 12.0317 24.2027 12.9894 24.2027C13.9778 24.2027 14.7177 23.9527 15.2091 23.4527C15.7004 22.9527 16.6307 22.7027 18 22.7027C19.3384 22.7027 20.2687 22.9527 20.7908 23.4527C21.3129 23.9527 22.0528 24.2027 23.0105 24.2027C23.999 24.2027 24.7312 23.9527 25.2072 23.4527C25.6831 22.9527 26.6057 22.7027 27.975 22.7027C28.9557 22.7027 29.6803 22.8411 30.1485 23.1181C30.6168 23.395 31.0778 23.6411 31.5317 23.8565C31.8298 23.9988 32.0865 24.1902 32.3019 24.4306C32.5172 24.6709 32.6249 24.9555 32.6249 25.2844C32.6249 25.6036 32.5086 25.8646 32.2759 26.0675C32.0432 26.2704 31.7797 26.3315 31.4855 26.2507C30.7721 26.0507 30.1923 25.7843 29.7461 25.4516C29.3 25.119 28.7096 24.9526 27.975 24.9526C27.0269 24.9526 26.3048 25.2026 25.8086 25.7026C25.3124 26.2026 24.3797 26.4526 23.0105 26.4526C21.6721 26.4526 20.7418 26.2026 20.2197 25.7026C19.6976 25.2026 18.9577 24.9526 18 24.9526C17.0115 24.9526 16.2716 25.2026 15.7802 25.7026C15.2889 26.2026 14.3586 26.4526 12.9894 26.4526C11.6202 26.4526 10.6952 26.2026 10.2144 25.7026C9.73362 25.2026 9.00381 24.9526 8.02496 24.9526H8.025ZM8.025 19.1257C7.27115 19.1257 6.67836 19.292 6.24664 19.6247C5.81489 19.9574 5.23749 20.2238 4.51444 20.4238C4.22021 20.5045 3.95675 20.4435 3.72405 20.2406C3.49137 20.0377 3.37504 19.7767 3.37504 19.4575C3.37504 19.1286 3.48272 18.844 3.6981 18.6036C3.91347 18.3632 4.1702 18.1719 4.46827 18.0296C4.92212 17.8142 5.38319 17.5681 5.85146 17.2912C6.31971 17.0142 7.04422 16.8758 8.025 16.8758C9.36345 16.8758 10.286 17.1258 10.7928 17.6258C11.2995 18.1258 12.0317 18.3758 12.9894 18.3758C13.9779 18.3758 14.7178 18.1258 15.2091 17.6258C15.7005 17.1258 16.6308 16.8758 18 16.8758C19.3384 16.8758 20.2649 17.1258 20.7793 17.6258C21.2937 18.1258 22.0221 18.3758 22.9644 18.3758C23.9529 18.3758 24.6928 18.1258 25.1841 17.6258C25.6755 17.1258 26.6058 16.8758 27.975 16.8758C28.925 16.8758 29.638 17.0142 30.1139 17.2912C30.5899 17.5681 31.0548 17.8142 31.5087 18.0296C31.8221 18.1719 32.0865 18.3632 32.3019 18.6036C32.5173 18.844 32.625 19.1286 32.625 19.4575C32.625 19.7767 32.5048 20.0377 32.2644 20.2406C32.024 20.4435 31.7567 20.5045 31.4625 20.4238C30.749 20.2238 30.1731 19.9574 29.7346 19.6247C29.2962 19.292 28.7096 19.1257 27.975 19.1257C27.0269 19.1257 26.3048 19.3757 25.8087 19.8757C25.3125 20.3757 24.3798 20.6257 23.0106 20.6257C21.6721 20.6257 20.7418 20.3757 20.2197 19.8757C19.6976 19.3757 18.9577 19.1257 18 19.1257C17.0115 19.1257 16.2793 19.3757 15.8034 19.8757C15.3274 20.3757 14.4048 20.6257 13.0356 20.6257C11.6663 20.6257 10.726 20.3757 10.2144 19.8757C9.70289 19.3757 8.97307 19.1257 8.025 19.1257ZM8.025 13.2988C7.28077 13.2988 6.69039 13.4627 6.25384 13.7906C5.81729 14.1185 5.24229 14.3825 4.52884 14.5825C4.22501 14.6632 3.95676 14.6046 3.72409 14.4065C3.49136 14.2084 3.375 13.9498 3.375 13.6306C3.375 13.3017 3.48269 13.0171 3.69806 12.7767C3.91344 12.5363 4.17016 12.345 4.46824 12.2027C4.92209 11.9873 5.38315 11.7411 5.85142 11.4642C6.31967 11.1873 7.04419 11.0488 8.02496 11.0488C9.36341 11.0488 10.286 11.2988 10.7927 11.7988C11.2995 12.2988 12.0317 12.5488 12.9894 12.5488C13.9778 12.5488 14.7177 12.2988 15.2091 11.7988C15.7004 11.2988 16.6307 11.0488 18 11.0488C19.3384 11.0488 20.2648 11.2988 20.7793 11.7988C21.2937 12.2988 22.0221 12.5488 22.9644 12.5488C23.9528 12.5488 24.6927 12.2988 25.1841 11.7988C25.6754 11.2988 26.6057 11.0488 27.975 11.0488C28.925 11.0488 29.6379 11.1873 30.1139 11.4642C30.5899 11.7411 31.0548 11.9873 31.5086 12.2027C31.8221 12.345 32.0865 12.5363 32.3019 12.7767C32.5172 13.0171 32.6249 13.3017 32.6249 13.6306C32.6249 13.9498 32.5047 14.2108 32.2644 14.4137C32.024 14.6166 31.7567 14.6776 31.4625 14.5969C30.749 14.3969 30.1731 14.1305 29.7346 13.7978C29.2962 13.4651 28.7096 13.2988 27.975 13.2988C27.0269 13.2988 26.3048 13.5488 25.8087 14.0488C25.3125 14.5488 24.3798 14.7988 23.0106 14.7988C21.6721 14.7988 20.7418 14.5488 20.2197 14.0488C19.6976 13.5488 18.9577 13.2988 18 13.2988C17.0115 13.2988 16.2793 13.5488 15.8034 14.0488C15.3274 14.5488 14.4048 14.7988 13.0356 14.7988C11.6663 14.7988 10.726 14.5488 10.2144 14.0488C9.70289 13.5488 8.97307 13.2988 8.025 13.2988Z" fill="#7C7C7C"/>
</svg>
