<svg width="36" height="36" viewBox="0 0 36 36" fill="none" xmlns="http://www.w3.org/2000/svg">
<path d="M14.2644 32.2509C12.601 32.2509 11.1827 31.6716 10.0096 30.5129C8.83654 29.3543 8.25 27.9529 8.25 26.3087C8.25 25.5106 8.44087 24.7717 8.82262 24.0919C9.20435 23.412 9.86924 22.6221 10.8173 21.7222C11.1211 21.4568 11.3899 21.1779 11.6236 20.8856C11.8572 20.5933 12.125 20.276 12.4269 19.9337C11.2289 18.099 10.3126 16.1851 9.67793 14.1919C9.04333 12.1986 8.72603 10.2424 8.72603 8.32315C8.72603 7.04622 8.92601 6.08036 9.32599 5.42556C9.72599 4.77076 10.3 4.44336 11.0481 4.44336C12.175 4.44336 13.2457 5.04672 14.2601 6.25345C15.2745 7.46017 16.0836 8.69623 16.6875 9.96163C17.0086 10.6732 17.2774 11.4078 17.4937 12.1655C17.7101 12.9232 17.8788 13.6877 18 14.4588C18.1211 13.6877 18.2923 12.9232 18.5134 12.1655C18.7346 11.4078 19.0086 10.6732 19.3356 9.96163C19.9144 8.69623 20.7135 7.46017 21.7327 6.25345C22.7519 5.04672 23.8249 4.44336 24.9519 4.44336C25.6999 4.44336 26.2739 4.77076 26.6739 5.42556C27.0739 6.08036 27.2739 7.04622 27.2739 8.32315C27.2739 10.2424 26.9566 12.1986 26.322 14.1919C25.6874 16.1851 24.771 18.099 23.573 19.9337C23.8749 20.276 24.1427 20.5933 24.3764 20.8856C24.61 21.1779 24.8788 21.4568 25.1826 21.7222C26.1307 22.6221 26.7956 23.412 27.1773 24.0919C27.5591 24.7717 27.7499 25.5106 27.7499 26.3087C27.7499 27.9529 27.1634 29.3543 25.9903 30.5129C24.8172 31.6716 23.399 32.2509 21.7355 32.2509C20.7067 32.2509 19.8269 32.1115 19.0961 31.8326L18 31.4144L16.9038 31.8326C16.173 32.1115 15.2932 32.2509 14.2644 32.2509ZM14.3221 30.001C14.8682 30.001 15.4288 29.9298 16.0038 29.7875C16.5788 29.6452 17.1163 29.4365 17.6163 29.1615C17.3606 29.0365 17.1274 28.836 16.9168 28.5601C16.7062 28.2841 16.601 28.0433 16.601 27.8375C16.601 27.6375 16.7351 27.4697 17.0033 27.3341C17.2716 27.1986 17.6038 27.1308 18 27.1308C18.3865 27.1308 18.7115 27.201 18.975 27.3413C19.2384 27.4817 19.3701 27.6471 19.3701 27.8375C19.3701 28.0433 19.2648 28.2841 19.0543 28.5601C18.8437 28.836 18.6105 29.0365 18.3547 29.1615C18.8547 29.4365 19.3923 29.6452 19.9672 29.7875C20.5422 29.9298 21.1028 30.001 21.649 30.001C22.7182 30.001 23.6226 29.6433 24.362 28.9279C25.1014 28.2125 25.4711 27.3394 25.4711 26.3087C25.4711 25.8202 25.3389 25.3586 25.0745 24.924C24.8101 24.4894 24.4086 24.0452 23.8701 23.5913C23.5394 23.3106 23.2759 23.0673 23.0798 22.8615C22.8836 22.6558 22.598 22.3173 22.2231 21.8462C21.4307 20.8462 20.7826 20.2053 20.2788 19.9235C19.7749 19.6418 19.0105 19.501 17.9855 19.501C16.9605 19.501 16.1923 19.6418 15.6807 19.9235C15.1692 20.2053 14.5249 20.8462 13.748 21.8462C13.373 22.3173 13.0875 22.6558 12.8913 22.8615C12.6952 23.0673 12.4317 23.3106 12.1009 23.5913C11.5625 24.0452 11.161 24.4894 10.8966 24.924C10.6322 25.3586 10.5 25.8202 10.5 26.3087C10.5 27.3394 10.8697 28.2125 11.6091 28.9279C12.3485 29.6433 13.2529 30.001 14.3221 30.001ZM15.75 25.126C15.55 25.126 15.375 25.0135 15.225 24.7885C15.075 24.5635 15 24.301 15 24.001C15 23.701 15.075 23.4385 15.225 23.2135C15.375 22.9885 15.55 22.876 15.75 22.876C15.95 22.876 16.125 22.9885 16.275 23.2135C16.425 23.4385 16.5 23.701 16.5 24.001C16.5 24.301 16.425 24.5635 16.275 24.7885C16.125 25.0135 15.95 25.126 15.75 25.126ZM20.25 25.126C20.05 25.126 19.875 25.0135 19.725 24.7885C19.575 24.5635 19.5 24.301 19.5 24.001C19.5 23.701 19.575 23.4385 19.725 23.2135C19.875 22.9885 20.05 22.876 20.25 22.876C20.45 22.876 20.625 22.9885 20.775 23.2135C20.925 23.4385 21 23.701 21 24.001C21 24.301 20.925 24.5635 20.775 24.7885C20.625 25.0135 20.45 25.126 20.25 25.126ZM14.0452 18.2837C14.3394 18.0645 14.664 17.8846 15.0188 17.7443C15.3736 17.6039 15.7634 17.4904 16.1884 17.4039C16.1384 16.2616 15.9668 15.1159 15.6736 13.9669C15.3803 12.8178 15.001 11.7462 14.5356 10.752C14.051 9.69428 13.5116 8.80966 12.9173 8.09811C12.3231 7.38658 11.7384 6.93082 11.1634 6.73082C11.1134 6.90005 11.0697 7.11062 11.0322 7.36255C10.9947 7.61447 10.9759 7.92025 10.9759 8.27987C10.9759 9.9318 11.2423 11.6231 11.775 13.3539C12.3077 15.0847 13.0644 16.7279 14.0452 18.2837ZM21.9548 18.2837C22.9355 16.7279 23.6922 15.0847 24.2249 13.3539C24.7576 11.6231 25.024 9.9318 25.024 8.27987C25.024 7.92025 25.0052 7.61447 24.9677 7.36255C24.9302 7.11062 24.8865 6.90005 24.8365 6.73082C24.2615 6.93082 23.6769 7.38658 23.0826 8.09811C22.4884 8.80966 21.949 9.69428 21.4644 10.752C21.0144 11.7462 20.6427 12.8178 20.3495 13.9669C20.0562 15.1159 19.8769 16.2616 19.8115 17.4039C20.2057 17.475 20.5802 17.5846 20.935 17.7327C21.2898 17.8808 21.6298 18.0645 21.9548 18.2837Z" fill="#7C7C7C"/>
</svg>
