<svg width="12" height="13" viewBox="0 0 12 13" fill="inherit" xmlns="http://www.w3.org/2000/svg">
<path d="M5.99981 11.6118C7.30407 10.4443 8.30215 9.32445 8.99404 8.25221C9.68592 7.17999 10.0319 6.24089 10.0319 5.4349C10.0319 4.21952 9.64574 3.22038 8.87352 2.43747C8.1013 1.65455 7.1434 1.2631 5.99981 1.2631C4.85622 1.2631 3.89831 1.65455 3.12609 2.43747C2.35387 3.22038 1.96776 4.21952 1.96776 5.4349C1.96776 6.24089 2.3137 7.17999 3.00557 8.25221C3.69746 9.32445 4.69554 10.4443 5.99981 11.6118ZM5.99981 12.5631C5.8699 12.5631 5.73998 12.5406 5.61007 12.4958C5.48016 12.4509 5.36264 12.3815 5.25751 12.2874C4.65923 11.7362 4.09941 11.1684 3.57804 10.5843C3.05667 10.0001 2.60347 9.4161 2.21842 8.83235C1.83338 8.24858 1.52868 7.66995 1.30432 7.09645C1.07996 6.52294 0.967773 5.96909 0.967773 5.4349C0.967773 3.89645 1.46542 2.65095 2.46072 1.69838C3.45601 0.745815 4.63571 0.269531 5.99981 0.269531C7.36391 0.269531 8.5436 0.745815 9.53889 1.69838C10.5342 2.65095 11.0318 3.89645 11.0318 5.4349C11.0318 5.96909 10.9197 6.52187 10.6953 7.09325C10.4709 7.66461 10.1673 8.24325 9.78439 8.82915C9.40149 9.41504 8.94936 9.99901 8.42799 10.5811C7.90662 11.1631 7.3468 11.7298 6.74851 12.281C6.64492 12.3751 6.5272 12.4456 6.39536 12.4926C6.2635 12.5396 6.13165 12.5631 5.99981 12.5631ZM6.00094 6.5131C6.33266 6.5131 6.61626 6.39499 6.85172 6.15876C7.08719 5.92254 7.20492 5.63857 7.20492 5.30685C7.20492 4.97513 7.08681 4.69153 6.85059 4.45606C6.61437 4.2206 6.3304 4.10286 5.99867 4.10286C5.66695 4.10286 5.38336 4.22098 5.14789 4.4572C4.91242 4.69342 4.79469 4.97739 4.79469 5.30911C4.79469 5.64084 4.9128 5.92443 5.14902 6.1599C5.38525 6.39536 5.66922 6.5131 6.00094 6.5131Z" fill="#2196F3"/>
</svg>
