<svg width="36" height="36" viewBox="0 0 36 36" fill="none" xmlns="http://www.w3.org/2000/svg">
<path d="M2.22412 29.5393V27.5605C2.22412 26.8221 2.41738 26.1432 2.80391 25.524C3.19046 24.9048 3.72988 24.4221 4.42218 24.0759C5.66833 23.4452 7.06256 22.924 8.60486 22.5125C10.1472 22.1009 11.7702 21.8952 13.474 21.8952C15.1779 21.8952 16.801 22.1009 18.3433 22.5125C19.8856 22.924 21.2798 23.4452 22.5259 24.0759C23.2182 24.4221 23.7577 24.9048 24.1442 25.524C24.5307 26.1432 24.724 26.8221 24.724 27.5605V29.5393C24.724 29.9258 24.5947 30.2484 24.336 30.5071C24.0774 30.7657 23.7548 30.8951 23.3682 30.8951H3.57986C3.19336 30.8951 2.87077 30.7657 2.6121 30.5071C2.35345 30.2484 2.22412 29.9258 2.22412 29.5393ZM4.47405 28.6451H22.474V27.5605C22.474 27.2182 22.3813 26.9249 22.1957 26.6807C22.0101 26.4365 21.776 26.2374 21.4933 26.0836C20.574 25.6143 19.4082 25.174 17.9957 24.7624C16.5832 24.3509 15.076 24.1451 13.474 24.1451C11.8721 24.1451 10.3649 24.3509 8.95245 24.7624C7.53995 25.174 6.37408 25.6143 5.45486 26.0836C5.17216 26.2374 4.93802 26.4365 4.75245 26.6807C4.56685 26.9249 4.47405 27.2182 4.47405 27.5605V28.6451ZM13.474 19.472C12.0068 19.472 10.765 18.9639 9.74861 17.9475C8.73228 16.9312 8.22412 15.6605 8.22412 14.1355H7.87796C7.68181 14.1355 7.5222 14.074 7.39912 13.9509C7.27605 13.8278 7.21451 13.6682 7.21451 13.4721C7.21451 13.2759 7.27605 13.1163 7.39912 12.9932C7.5222 12.8702 7.68181 12.8086 7.87796 12.8086H8.22412C8.24335 11.8663 8.46065 11.0149 8.87602 10.2544C9.2914 9.49378 9.88177 8.84138 10.6471 8.29716V9.72216C10.6471 9.91831 10.7087 10.0779 10.8318 10.201C10.9548 10.3241 11.1144 10.3856 11.3106 10.3856C11.5067 10.3856 11.6664 10.3241 11.7894 10.201C11.9125 10.0779 11.974 9.91831 11.974 9.72216V7.72599C12.1894 7.65099 12.4245 7.58993 12.6793 7.54281C12.9341 7.49571 13.199 7.47216 13.474 7.47216C13.749 7.47216 14.014 7.49571 14.2688 7.54281C14.5236 7.58993 14.7587 7.65099 14.974 7.72599V9.72216C14.974 9.91831 15.0356 10.0779 15.1587 10.201C15.2818 10.3241 15.4414 10.3856 15.6375 10.3856C15.8337 10.3856 15.9933 10.3241 16.1164 10.201C16.2394 10.0779 16.301 9.91831 16.301 9.72216V8.29716C17.076 8.84138 17.6687 9.49378 18.0793 10.2544C18.4899 11.0149 18.7048 11.8663 18.724 12.8086H19.0702C19.2663 12.8086 19.4259 12.8702 19.549 12.9932C19.6721 13.1163 19.7336 13.2759 19.7336 13.4721C19.7336 13.6682 19.6721 13.8278 19.549 13.9509C19.4259 14.074 19.2663 14.1355 19.0702 14.1355H18.724C18.724 15.6605 18.2158 16.9312 17.1995 17.9475C16.1832 18.9639 14.9413 19.472 13.474 19.472ZM13.474 17.2221C14.3183 17.2221 15.0294 16.9331 15.6072 16.3553C16.1851 15.7774 16.474 15.0663 16.474 14.2221H10.474C10.474 15.0663 10.763 15.7774 11.3409 16.3553C11.9188 16.9331 12.6298 17.2221 13.474 17.2221ZM24.6693 21.8288L24.5856 21.2893C24.4164 21.2393 24.2462 21.1711 24.075 21.0845C23.9039 20.998 23.751 20.8874 23.6164 20.7528L23.1231 20.9461C22.9673 20.9961 22.8178 20.9985 22.6746 20.9533C22.5313 20.9081 22.4144 20.8076 22.324 20.6518L22.2173 20.4614C22.1269 20.3211 22.0981 20.173 22.1308 20.0172C22.1635 19.8615 22.2423 19.7307 22.3673 19.6249L22.7856 19.2874C22.7664 19.1932 22.7568 19.1038 22.7568 19.0192V18.4898C22.7568 18.41 22.7664 18.3182 22.7856 18.2143L22.3673 17.8768C22.2423 17.7711 22.1635 17.6403 22.1308 17.4845C22.0981 17.3288 22.1269 17.1807 22.2173 17.0403L22.324 16.8499C22.4144 16.6942 22.5313 16.5937 22.6746 16.5485C22.8178 16.5033 22.9673 16.5057 23.1231 16.5557L23.6164 16.749C23.7356 16.6297 23.8846 16.523 24.0635 16.4288C24.2423 16.3345 24.4164 16.2624 24.5856 16.2124L24.6693 15.673C24.7096 15.5172 24.7875 15.3855 24.9029 15.2778C25.0183 15.1701 25.1539 15.1163 25.3096 15.1163H25.5231C25.6789 15.1163 25.8144 15.1701 25.9298 15.2778C26.0452 15.3855 26.1231 15.5172 26.1635 15.673L26.2471 16.2124C26.4164 16.2624 26.5904 16.3345 26.7693 16.4288C26.9481 16.523 27.0971 16.6297 27.2164 16.749L27.7096 16.5557C27.8654 16.5057 28.0149 16.5033 28.1582 16.5485C28.3015 16.5937 28.4183 16.6942 28.5087 16.8499L28.6154 17.0403C28.7058 17.1807 28.7346 17.3288 28.7019 17.4845C28.6692 17.6403 28.5904 17.7711 28.4654 17.8768L28.0471 18.2143C28.0664 18.3182 28.076 18.41 28.076 18.4898V19.0192C28.076 19.1038 28.0664 19.1932 28.0471 19.2874L28.4654 19.6249C28.5904 19.7307 28.6692 19.8615 28.7019 20.0172C28.7346 20.173 28.7058 20.3211 28.6154 20.4614L28.5087 20.6518C28.4183 20.8076 28.3015 20.9081 28.1582 20.9533C28.0149 20.9985 27.8654 20.9961 27.7096 20.9461L27.2164 20.7528C27.0817 20.8874 26.9289 20.998 26.7577 21.0845C26.5866 21.1711 26.4164 21.2393 26.2471 21.2893L26.1635 21.8288C26.1231 21.9845 26.0452 22.1162 25.9298 22.2239C25.8144 22.3316 25.6789 22.3855 25.5231 22.3855H25.3096C25.1539 22.3855 25.0183 22.3316 24.9029 22.2239C24.7875 22.1162 24.7096 21.9845 24.6693 21.8288ZM25.4164 19.9913C25.7548 19.9913 26.0462 19.8692 26.2904 19.6249C26.5346 19.3807 26.6568 19.0894 26.6568 18.7509C26.6568 18.4124 26.5346 18.1211 26.2904 17.8768C26.0462 17.6326 25.7548 17.5105 25.4164 17.5105C25.0779 17.5105 24.7865 17.6326 24.5423 17.8768C24.2981 18.1211 24.176 18.4124 24.176 18.7509C24.176 19.0894 24.2981 19.3807 24.5423 19.6249C24.7865 19.8692 25.0779 19.9913 25.4164 19.9913ZM28.1827 13.873L28.076 13.1951C27.8222 13.1297 27.5702 13.0263 27.3202 12.885C27.0702 12.7436 26.8606 12.5739 26.6914 12.3758L25.9904 12.6383C25.8039 12.7037 25.6197 12.7023 25.438 12.634C25.2563 12.5658 25.1125 12.446 25.0068 12.2749L24.8539 12.0153C24.7481 11.8441 24.7116 11.6614 24.7443 11.4672C24.777 11.273 24.8789 11.1076 25.05 10.9711L25.6299 10.4951C25.5799 10.3605 25.55 10.2365 25.5404 10.123C25.5308 10.0095 25.526 9.88551 25.526 9.75088C25.526 9.61626 25.5308 9.49222 25.5404 9.37877C25.55 9.2653 25.5799 9.14126 25.6299 9.00666L25.05 8.53067C24.8789 8.39414 24.777 8.22877 24.7443 8.03454C24.7116 7.84032 24.7481 7.65763 24.8539 7.48648L25.0068 7.22687C25.1125 7.05572 25.2563 6.93601 25.438 6.86773C25.6197 6.79946 25.8039 6.79802 25.9904 6.86342L26.6914 7.12592C26.8606 6.92784 27.0702 6.75813 27.3202 6.61678C27.5702 6.47543 27.8222 6.37206 28.076 6.30666L28.1827 5.62881C28.2231 5.42688 28.3202 5.26053 28.4741 5.12976C28.6279 4.99898 28.8058 4.93359 29.0077 4.93359H29.2673C29.4692 4.93359 29.6471 4.99898 29.801 5.12976C29.9548 5.26053 30.0519 5.42688 30.0923 5.62881L30.199 6.30666C30.4529 6.37206 30.7048 6.47543 30.9548 6.61678C31.2048 6.75813 31.4144 6.92784 31.5837 7.12592L32.2846 6.86342C32.4712 6.79802 32.6553 6.79946 32.837 6.86773C33.0187 6.93601 33.1625 7.05572 33.2683 7.22687L33.4212 7.48648C33.5269 7.65763 33.5634 7.84032 33.5308 8.03454C33.4981 8.22877 33.3961 8.39414 33.225 8.53067L32.6452 9.00666C32.6952 9.14126 32.725 9.2653 32.7346 9.37877C32.7442 9.49222 32.749 9.61626 32.749 9.75088C32.749 9.88551 32.7442 10.0095 32.7346 10.123C32.725 10.2365 32.6952 10.3605 32.6452 10.4951L33.225 10.9711C33.3961 11.1076 33.4981 11.273 33.5308 11.4672C33.5634 11.6614 33.5269 11.8441 33.4212 12.0153L33.2683 12.2749C33.1625 12.446 33.0187 12.5658 32.837 12.634C32.6553 12.7023 32.4712 12.7037 32.2846 12.6383L31.5837 12.3758C31.4144 12.5739 31.2048 12.7436 30.9548 12.885C30.7048 13.0263 30.4529 13.1297 30.199 13.1951L30.0923 13.873C30.0519 14.0749 29.9548 14.2412 29.801 14.372C29.6471 14.5028 29.4692 14.5682 29.2673 14.5682H29.0077C28.8058 14.5682 28.6279 14.5028 28.4741 14.372C28.3202 14.2412 28.2231 14.0749 28.1827 13.873ZM29.1375 11.7124C29.6914 11.7124 30.1568 11.524 30.5337 11.147C30.9106 10.7701 31.099 10.3047 31.099 9.75088C31.099 9.19703 30.9106 8.73164 30.5337 8.35472C30.1568 7.97779 29.6914 7.78933 29.1375 7.78933C28.5837 7.78933 28.1183 7.97779 27.7414 8.35472C27.3644 8.73164 27.176 9.19703 27.176 9.75088C27.176 10.3047 27.3644 10.7701 27.7414 11.147C28.1183 11.524 28.5837 11.7124 29.1375 11.7124Z" fill="#7C7C7C"/>
</svg>
