<svg width="36" height="36" viewBox="0 0 36 36" fill="none" xmlns="http://www.w3.org/2000/svg">
<path d="M7.4421 6.375H28.5575C28.8763 6.375 29.1434 6.48285 29.3591 6.69855C29.5747 6.91428 29.6825 7.18158 29.6825 7.50045C29.6825 7.81935 29.5747 8.08649 29.3591 8.30186C29.1434 8.51724 28.8763 8.62493 28.5575 8.62493H7.4421C7.12338 8.62493 6.85621 8.51707 6.64058 8.30137C6.42496 8.08565 6.31714 7.81835 6.31714 7.49948C6.31714 7.18058 6.42496 6.91344 6.64058 6.69806C6.85621 6.48269 7.12338 6.375 7.4421 6.375ZM7.73059 29.6249C7.34647 29.6249 7.02448 29.495 6.76463 29.2352C6.50478 28.9753 6.37486 28.6533 6.37486 28.2692V20.6249H5.91042C5.48349 20.6249 5.13206 20.4581 4.85611 20.1245C4.58013 19.7908 4.49214 19.4105 4.59214 18.9836L6.09214 11.9452C6.16049 11.633 6.31995 11.3766 6.57053 11.176C6.82113 10.9753 7.10589 10.875 7.42482 10.875H28.5748C28.8937 10.875 29.1785 10.9753 29.4291 11.176C29.6797 11.3766 29.8391 11.633 29.9075 11.9452L31.4075 18.9836C31.5075 19.4105 31.4195 19.7908 31.1435 20.1245C30.8676 20.4581 30.5161 20.6249 30.0892 20.6249H29.6248V28.5C29.6248 28.8187 29.5169 29.0859 29.3012 29.3015C29.0855 29.5171 28.8182 29.6249 28.4993 29.6249C28.1804 29.6249 27.9133 29.5171 27.6979 29.3015C27.4825 29.0859 27.3749 28.8187 27.3749 28.5V20.6249H20.6248V28.2692C20.6248 28.6533 20.4949 28.9753 20.235 29.2352C19.9752 29.495 19.6532 29.6249 19.269 29.6249H7.73059ZM8.62478 27.375H18.3749V20.6249H8.62478V27.375ZM6.99784 18.375H29.0018L27.8566 13.1249H8.14305L6.99784 18.375Z" fill="#7C7C7C"/>
</svg>
