<svg width="36" height="36" viewBox="0 0 36 36" fill="none" xmlns="http://www.w3.org/2000/svg">
<path d="M2.04806 26.6819C1.68026 26.6819 1.37196 26.5575 1.12316 26.3087C0.874387 26.0599 0.75 25.7516 0.75 25.3838V24.8531C0.75 23.855 1.27115 23.0353 2.31345 22.394C3.35575 21.7526 4.71439 21.4319 6.38936 21.4319C6.66629 21.4319 6.94514 21.4406 7.22591 21.4579C7.50669 21.4752 7.78937 21.5089 8.07397 21.5589C7.78167 22.0262 7.56485 22.5113 7.4235 23.0141C7.28218 23.517 7.21151 24.0329 7.21151 24.5617V26.6819H2.04806ZM11.1117 26.6819C10.7212 26.6819 10.3966 26.552 10.138 26.2921C9.8793 26.0323 9.74996 25.7103 9.74996 25.3261V24.6194C9.74996 23.9172 9.94709 23.2753 10.3413 22.6937C10.7356 22.1122 11.3038 21.605 12.0461 21.1723C12.7884 20.7397 13.6653 20.4151 14.6769 20.1988C15.6884 19.9824 16.7941 19.8743 17.9941 19.8743C19.2172 19.8743 20.3345 19.9824 21.346 20.1988C22.3576 20.4151 23.2345 20.7397 23.9768 21.1723C24.7191 21.605 25.2835 22.1122 25.6701 22.6937C26.0566 23.2753 26.2499 23.9172 26.2499 24.6194V25.3261C26.2499 25.7103 26.1199 26.0323 25.8601 26.2921C25.6002 26.552 25.2782 26.6819 24.8941 26.6819H11.1117ZM28.7883 26.6819V24.5638C28.7883 23.999 28.7215 23.4675 28.5879 22.9694C28.4542 22.4714 28.2537 22.0012 27.9864 21.5589C28.2807 21.5089 28.5619 21.4752 28.8302 21.4579C29.0985 21.4406 29.3634 21.4319 29.6249 21.4319C31.2999 21.4319 32.6561 21.7488 33.6936 22.3824C34.7311 23.0161 35.2499 23.8396 35.2499 24.8531V25.3838C35.2499 25.7516 35.1255 26.0599 34.8767 26.3087C34.6279 26.5575 34.3196 26.6819 33.9518 26.6819H28.7883ZM12.1153 24.4319H23.9076V24.2733C23.7538 23.6675 23.1153 23.1579 21.9922 22.7444C20.8692 22.331 19.5384 22.1242 17.9999 22.1242C16.4614 22.1242 15.1307 22.331 14.0076 22.7444C12.8845 23.1579 12.2538 23.6675 12.1153 24.2733V24.4319ZM6.38554 19.9752C5.67849 19.9752 5.07449 19.7238 4.57354 19.2211C4.07259 18.7183 3.82211 18.114 3.82211 17.408C3.82211 16.6926 4.07349 16.0883 4.57624 15.595C5.07899 15.1017 5.68336 14.8551 6.38936 14.8551C7.10474 14.8551 7.71146 15.1017 8.20954 15.595C8.70761 16.0883 8.95665 16.694 8.95665 17.4122C8.95665 18.1094 8.71025 18.7108 8.21745 19.2166C7.72465 19.7223 7.11401 19.9752 6.38554 19.9752ZM29.6249 19.9752C28.9249 19.9752 28.322 19.7223 27.8163 19.2166C27.3105 18.7108 27.0576 18.1094 27.0576 17.4122C27.0576 16.694 27.3105 16.0883 27.8163 15.595C28.322 15.1017 28.9258 14.8551 29.6277 14.8551C30.3508 14.8551 30.959 15.1017 31.4523 15.595C31.9455 16.0883 32.1922 16.6926 32.1922 17.408C32.1922 18.114 31.9461 18.7183 31.4541 19.2211C30.962 19.7238 30.3523 19.9752 29.6249 19.9752ZM18.005 18.7493C16.9247 18.7493 16.0048 18.3707 15.2451 17.6135C14.4855 16.8563 14.1057 15.9368 14.1057 14.8551C14.1057 13.7517 14.4843 12.8269 15.2415 12.0805C15.9987 11.3341 16.9182 10.9609 17.9999 10.9609C19.1033 10.9609 20.0281 11.3336 20.7745 12.079C21.5209 12.8244 21.8941 13.7481 21.8941 14.85C21.8941 15.9303 21.5214 16.8503 20.776 17.6099C20.0306 18.3695 19.1069 18.7493 18.005 18.7493ZM18.0071 16.4993C18.4658 16.4993 18.8533 16.3388 19.1697 16.0176C19.486 15.6964 19.6441 15.3065 19.6441 14.8479C19.6441 14.3892 19.4866 14.0017 19.1715 13.6854C18.8563 13.369 18.4658 13.2109 17.9999 13.2109C17.5461 13.2109 17.1586 13.3684 16.8374 13.6836C16.5163 13.9987 16.3557 14.3892 16.3557 14.8551C16.3557 15.3089 16.5163 15.6964 16.8374 16.0176C17.1586 16.3388 17.5485 16.4993 18.0071 16.4993Z" fill="#7C7C7C"/>
</svg>
