<svg width="36" height="36" viewBox="0 0 36 36" fill="none" xmlns="http://www.w3.org/2000/svg">
<path d="M13.5 26.6249H22.5C22.8192 26.6249 23.0865 26.5172 23.3019 26.3019C23.5172 26.0865 23.6249 25.8192 23.6249 25.5C23.6249 25.1807 23.5172 24.9134 23.3019 24.6981C23.0865 24.4827 22.8192 24.375 22.5 24.375H13.5C13.1807 24.375 12.9134 24.4827 12.6981 24.6981C12.4827 24.9134 12.375 25.1807 12.375 25.5C12.375 25.8192 12.4827 26.0865 12.6981 26.3019C12.9134 26.5172 13.1807 26.6249 13.5 26.6249ZM13.5 20.6249H22.5C22.8192 20.6249 23.0865 20.5172 23.3019 20.3019C23.5172 20.0865 23.6249 19.8192 23.6249 19.5C23.6249 19.1807 23.5172 18.9134 23.3019 18.6981C23.0865 18.4827 22.8192 18.375 22.5 18.375H13.5C13.1807 18.375 12.9134 18.4827 12.6981 18.6981C12.4827 18.9134 12.375 19.1807 12.375 19.5C12.375 19.8192 12.4827 20.0865 12.6981 20.3019C12.9134 20.5172 13.1807 20.6249 13.5 20.6249ZM9.46155 32.2499C8.70385 32.2499 8.0625 31.9874 7.5375 31.4624C7.0125 30.9374 6.75 30.2961 6.75 29.5384V6.46155C6.75 5.70385 7.0125 5.0625 7.5375 4.5375C8.0625 4.0125 8.70385 3.75 9.46155 3.75H20.2529C20.6144 3.75 20.962 3.8202 21.2957 3.9606C21.6293 4.10098 21.9192 4.29424 22.1654 4.54039L28.4595 10.8345C28.7057 11.0807 28.8989 11.3706 29.0393 11.7043C29.1797 12.0379 29.2499 12.3855 29.2499 12.747V29.5384C29.2499 30.2961 28.9874 30.9374 28.4624 31.4624C27.9374 31.9874 27.2961 32.2499 26.5384 32.2499H9.46155ZM20.25 11.3942V5.99996H9.46155C9.34615 5.99996 9.24036 6.04804 9.14419 6.14419C9.04804 6.24036 8.99996 6.34615 8.99996 6.46155V29.5384C8.99996 29.6538 9.04804 29.7596 9.14419 29.8557C9.24036 29.9519 9.34615 30 9.46155 30H26.5384C26.6538 30 26.7596 29.9519 26.8557 29.8557C26.9519 29.7596 27 29.6538 27 29.5384V12.7499H21.6058C21.2193 12.7499 20.8967 12.6206 20.638 12.3619C20.3793 12.1033 20.25 11.7807 20.25 11.3942Z" fill="#7C7C7C"/>
</svg>
