<svg width="36" height="36" viewBox="0 0 36 36" fill="none" xmlns="http://www.w3.org/2000/svg">
<path d="M18.0025 32.2499C16.0316 32.2499 14.179 31.8759 12.4448 31.1279C10.7106 30.3799 9.20208 29.3648 7.91925 28.0826C6.6364 26.8003 5.62081 25.2924 4.87249 23.559C4.12416 21.8255 3.75 19.9734 3.75 18.0025C3.75 16.0316 4.124 14.179 4.872 12.4448C5.62 10.7106 6.63512 9.20208 7.91738 7.91925C9.19965 6.6364 10.7075 5.62081 12.441 4.87249C14.1744 4.12416 16.0266 3.75 17.9975 3.75C19.9684 3.75 21.8209 4.124 23.5551 4.872C25.2893 5.62 26.7979 6.63513 28.0807 7.91738C29.3635 9.19965 30.3791 10.7075 31.1274 12.441C31.8758 14.1744 32.2499 16.0266 32.2499 17.9975C32.2499 19.9684 31.8759 21.8209 31.1279 23.5551C30.3799 25.2893 29.3648 26.7979 28.0826 28.0807C26.8003 29.3635 25.2924 30.3791 23.559 31.1274C21.8255 31.8758 19.9734 32.2499 18.0025 32.2499ZM16.5 29.925V27C15.675 27 14.9687 26.7062 14.3812 26.1187C13.7937 25.5312 13.5 24.825 13.5 24V22.5L6.29996 15.3C6.22496 15.75 6.15621 16.2 6.09371 16.65C6.03121 17.1 5.99996 17.55 5.99996 18C5.99996 21.025 6.99371 23.675 8.98121 25.95C10.9687 28.225 13.475 29.55 16.5 29.925ZM26.85 26.1C27.35 25.55 27.8 24.9562 28.2 24.3187C28.6 23.6812 28.9312 23.0187 29.1937 22.3312C29.4562 21.6437 29.6562 20.9375 29.7937 20.2125C29.9312 19.4875 30 18.75 30 18C30 15.5427 29.3211 13.2986 27.9634 11.2676C26.6057 9.23661 24.7846 7.77113 22.5 6.87113V7.49996C22.5 8.32496 22.2062 9.03121 21.6187 9.61871C21.0312 10.2062 20.325 10.5 19.5 10.5H16.5V13.5C16.5 13.925 16.3562 14.2812 16.0687 14.5687C15.7812 14.8562 15.425 15 15 15H12V18H21C21.425 18 21.7812 18.1437 22.0687 18.4312C22.3562 18.7187 22.5 19.075 22.5 19.5V24H24C24.65 24 25.2375 24.1937 25.7625 24.5812C26.2875 24.9687 26.65 25.475 26.85 26.1Z" fill="#7C7C7C"/>
</svg>
