<svg width="36" height="36" viewBox="0 0 36 36" fill="none" xmlns="http://www.w3.org/2000/svg">
<path d="M18 7.72499L6.28845 12.4096C6.2019 12.4481 6.13219 12.5058 6.07931 12.5827C6.02641 12.6596 5.99996 12.7462 5.99996 12.8423V28.0384C5.99996 28.1442 6.05045 28.2476 6.15143 28.3485C6.2524 28.4495 6.35578 28.5 6.46155 28.5H9.75V19.2115C9.75 18.4634 10.0149 17.8245 10.5447 17.2947C11.0745 16.7649 11.7135 16.5 12.4615 16.5H23.5384C24.2865 16.5 24.9254 16.7649 25.4552 17.2947C25.985 17.8245 26.2499 18.4634 26.2499 19.2115V28.5H29.5384C29.6442 28.5 29.7475 28.4495 29.8485 28.3485C29.9495 28.2476 30 28.1442 30 28.0384V12.8423C30 12.7462 29.9735 12.6596 29.9206 12.5827C29.8677 12.5058 29.798 12.4481 29.7115 12.4096L18 7.72499ZM3.75 28.0384V12.8423C3.75 12.275 3.90434 11.7654 4.21301 11.3135C4.52166 10.8616 4.93464 10.5327 5.45194 10.327L16.9903 5.71447C17.3115 5.57409 17.648 5.50391 18 5.50391C18.3519 5.50391 18.6884 5.57409 19.0096 5.71447L30.548 10.327C31.0653 10.5327 31.4783 10.8616 31.7869 11.3135C32.0956 11.7654 32.2499 12.275 32.2499 12.8423V28.0384C32.2499 28.7865 31.985 29.4254 31.4552 29.9552C30.9254 30.485 30.2865 30.75 29.5384 30.75H24V19.2115C24 19.0769 23.9567 18.9663 23.8701 18.8797C23.7836 18.7932 23.673 18.75 23.5384 18.75H12.4615C12.3269 18.75 12.2163 18.7932 12.1298 18.8797C12.0432 18.9663 12 19.0769 12 19.2115V30.75H6.46155C5.71348 30.75 5.07454 30.485 4.54474 29.9552C4.01491 29.4254 3.75 28.7865 3.75 28.0384ZM13.9183 30.75V28.0961H16.5721V30.75H13.9183ZM16.6731 26.25V23.5961H19.3269V26.25H16.6731ZM19.4279 30.75V28.0961H22.0816V30.75H19.4279Z" fill="#7C7C7C"/>
</svg>
