<svg width="19" height="19" viewBox="0 0 19 19" fill="none" xmlns="http://www.w3.org/2000/svg">
<path d="M9.49929 3.92065C9.32213 3.92065 9.17372 3.86075 9.05406 3.74096C8.93441 3.62118 8.87458 3.47275 8.87458 3.29567V1.46873C8.87458 1.29165 8.9345 1.14322 9.05433 1.02344C9.17418 0.903646 9.32268 0.84375 9.49983 0.84375C9.677 0.84375 9.82541 0.903646 9.94506 1.02344C10.0647 1.14322 10.1245 1.29165 10.1245 1.46873V3.29567C10.1245 3.47275 10.0646 3.62118 9.94479 3.74096C9.82494 3.86075 9.67645 3.92065 9.49929 3.92065ZM13.4964 5.5809C13.381 5.46552 13.3246 5.32263 13.3273 5.15223C13.33 4.98183 13.389 4.83199 13.5044 4.70271L14.7752 3.40302C14.9006 3.27376 15.0494 3.20913 15.2218 3.20913C15.3941 3.20913 15.5455 3.27434 15.676 3.40477C15.7955 3.52434 15.8553 3.67013 15.8553 3.84212C15.8553 4.01413 15.795 4.16049 15.6742 4.28121L14.3745 5.5809C14.2538 5.70162 14.1074 5.76198 13.9354 5.76198C13.7634 5.76198 13.6171 5.70162 13.4964 5.5809ZM15.7816 10.2027C15.6045 10.2027 15.4561 10.1428 15.3363 10.0229C15.2165 9.90307 15.1566 9.75457 15.1566 9.57742C15.1566 9.40025 15.2165 9.25184 15.3363 9.13219C15.4561 9.01254 15.6045 8.95271 15.7816 8.95271H17.6085C17.7856 8.95271 17.934 9.01263 18.0538 9.13246C18.1736 9.25231 18.2335 9.40081 18.2335 9.57796C18.2335 9.75513 18.1736 9.90353 18.0538 10.0232C17.934 10.1428 17.7856 10.2027 17.6085 10.2027H15.7816ZM9.49929 18.3116C9.32213 18.3116 9.17372 18.2517 9.05406 18.132C8.93441 18.0122 8.87458 17.8637 8.87458 17.6866V15.8677C8.87458 15.6906 8.9345 15.5422 9.05433 15.4224C9.17418 15.3026 9.32268 15.2427 9.49983 15.2427C9.677 15.2427 9.82541 15.3026 9.94506 15.4224C10.0647 15.5422 10.1245 15.6906 10.1245 15.8677V17.6866C10.1245 17.8637 10.0646 18.0122 9.94479 18.1319C9.82494 18.2517 9.67645 18.3116 9.49929 18.3116ZM4.6326 5.5809L3.3249 4.30204C3.19563 4.17719 3.131 4.02633 3.131 3.84944C3.131 3.67256 3.19563 3.52376 3.3249 3.40302C3.44563 3.28765 3.59378 3.22996 3.76933 3.22996C3.9449 3.22996 4.08949 3.28765 4.20308 3.40302L5.51079 4.71073C5.62617 4.82433 5.68385 4.96891 5.68385 5.14448C5.68385 5.32005 5.6267 5.46552 5.5124 5.5809C5.38769 5.69628 5.24219 5.75398 5.07592 5.75398C4.90965 5.75398 4.76188 5.69628 4.6326 5.5809ZM14.7832 15.7524L13.5044 14.4527C13.389 14.3234 13.33 14.1735 13.3273 14.0031C13.3246 13.8327 13.3804 13.6899 13.4948 13.5745C13.6091 13.4591 13.7519 13.4014 13.9234 13.4014C14.0949 13.4014 14.2453 13.4618 14.3745 13.5825L15.6742 14.8613C15.7981 14.9767 15.858 15.1218 15.8537 15.2964C15.8494 15.4711 15.7888 15.6231 15.6718 15.7524C15.5441 15.8816 15.3925 15.9462 15.217 15.9462C15.0414 15.9462 14.8968 15.8816 14.7832 15.7524ZM1.3906 10.2027C1.21352 10.2027 1.06509 10.1428 0.945313 10.0229C0.825521 9.90307 0.765625 9.75457 0.765625 9.57742C0.765625 9.40025 0.825514 9.25184 0.945292 9.13219C1.06508 9.01254 1.21352 8.95271 1.3906 8.95271H3.21754C3.39463 8.95271 3.54306 9.01263 3.66283 9.13246C3.78263 9.25231 3.84252 9.40081 3.84252 9.57796C3.84252 9.75513 3.78263 9.90353 3.66283 10.0232C3.54306 10.1428 3.39463 10.2027 3.21754 10.2027H1.3906ZM3.33292 15.7524C3.21754 15.6316 3.15851 15.4839 3.15583 15.3092C3.15317 15.1346 3.20952 14.9895 3.3249 14.8742L4.61658 13.5825C4.73731 13.4618 4.88153 13.4014 5.04927 13.4014C5.21699 13.4014 5.36549 13.4612 5.49477 13.5807C5.62403 13.7112 5.68867 13.8616 5.68867 14.032C5.68867 14.2024 5.62403 14.3522 5.49477 14.4815L4.22392 15.7524C4.09465 15.8816 3.94224 15.9462 3.76667 15.9462C3.5911 15.9462 3.44651 15.8816 3.33292 15.7524ZM9.50146 14.161C8.22883 14.161 7.14648 13.7156 6.2544 12.8248C5.3623 11.9339 4.91625 10.8522 4.91625 9.57958C4.91625 8.30696 5.36167 7.2246 6.2525 6.33252C7.14333 5.44042 8.22506 4.99437 9.49767 4.99437C10.7703 4.99437 11.8526 5.43979 12.7447 6.33063C13.6368 7.22146 14.0829 8.30318 14.0829 9.57579C14.0829 10.8484 13.6375 11.9308 12.7466 12.8229C11.8558 13.715 10.7741 14.161 9.50146 14.161ZM9.49956 12.911C10.4162 12.911 11.201 12.5846 11.8537 11.9319C12.5065 11.2791 12.8329 10.4944 12.8329 9.57769C12.8329 8.66102 12.5065 7.8763 11.8537 7.22352C11.201 6.57074 10.4162 6.24435 9.49956 6.24435C8.5829 6.24435 7.79817 6.57074 7.1454 7.22352C6.49262 7.8763 6.16623 8.66102 6.16623 9.57769C6.16623 10.4944 6.49262 11.2791 7.1454 11.9319C7.79817 12.5846 8.5829 12.911 9.49956 12.911Z" fill="#87BEEE"/>
</svg>
