<svg width="8" height="17" viewBox="0 0 8 17" fill="none" xmlns="http://www.w3.org/2000/svg">
<path d="M3.99949 16.1497C2.95891 16.1497 2.07376 15.7849 1.34405 15.0552C0.614359 14.3254 0.249512 13.4403 0.249512 12.3997C0.249512 11.7651 0.396685 11.177 0.691032 10.6353C0.985366 10.0936 1.39375 9.64546 1.91618 9.29076V2.39972C1.91618 1.81747 2.11783 1.32468 2.52114 0.921365C2.92446 0.51806 3.41724 0.316406 3.99949 0.316406C4.58174 0.316406 5.07453 0.51806 5.47785 0.921365C5.88115 1.32468 6.0828 1.81747 6.0828 2.39972V9.29076C6.60523 9.64546 7.01362 10.0936 7.30795 10.6353C7.6023 11.177 7.74947 11.7651 7.74947 12.3997C7.74947 13.4403 7.38462 14.3254 6.65493 15.0552C5.92522 15.7849 5.04007 16.1497 3.99949 16.1497ZM3.16616 7.55999H4.83282V6.5183H3.99949V5.78114H4.83282V4.0183H3.99949V3.28114H4.83282V2.39972C4.83282 2.16361 4.75296 1.96569 4.59324 1.80597C4.43352 1.64625 4.2356 1.56639 3.99949 1.56639C3.76338 1.56639 3.56546 1.64625 3.40574 1.80597C3.24602 1.96569 3.16616 2.16361 3.16616 2.39972V7.55999Z" fill="#87BEEE"/>
</svg>
