<svg width="36" height="36" viewBox="0 0 36 36" fill="none" xmlns="http://www.w3.org/2000/svg">
<path d="M5.76922 13.7023C5.45047 13.7023 5.18329 13.5944 4.96766 13.3787C4.75204 13.163 4.64422 12.8957 4.64422 12.5768C4.64422 12.2579 4.75204 11.9908 4.96766 11.7754C5.18329 11.56 5.45047 11.4523 5.76922 11.4523H10.3558C11.0077 11.4523 11.5745 11.6692 12.0562 12.1028C12.5379 12.5365 12.8173 13.0696 12.8942 13.7023H5.76922ZM8.79806 27.1735C10.0961 27.1735 11.1995 26.7191 12.1081 25.8105C13.0168 24.9018 13.4712 23.7984 13.4712 22.5004C13.4712 21.2023 13.0168 20.0989 12.1081 19.1903C11.1995 18.2816 10.0961 17.8273 8.79806 17.8273C7.49999 17.8273 6.39662 18.2816 5.48797 19.1903C4.5793 20.0989 4.12496 21.2023 4.12496 22.5004C4.12496 23.7984 4.5793 24.9018 5.48797 25.8105C6.39662 26.7191 7.49999 27.1735 8.79806 27.1735ZM29.25 27.1735C29.9711 27.1735 30.5889 26.9163 31.1034 26.4018C31.6178 25.8874 31.875 25.2696 31.875 24.5484C31.875 23.8273 31.6178 23.2095 31.1034 22.695C30.5889 22.1806 29.9711 21.9234 29.25 21.9234C28.5288 21.9234 27.911 22.1806 27.3966 22.695C26.8822 23.2095 26.625 23.8273 26.625 24.5484C26.625 25.2696 26.8822 25.8874 27.3966 26.4018C27.911 26.9163 28.5288 27.1735 29.25 27.1735ZM8.79465 24.4619C8.24885 24.4619 7.78605 24.2708 7.40625 23.8888C7.02645 23.5067 6.83655 23.0428 6.83655 22.497C6.83655 21.9512 7.02759 21.4884 7.40966 21.1086C7.79171 20.7288 8.25564 20.5389 8.80144 20.5389C9.34726 20.5389 9.81007 20.7299 10.1899 21.112C10.5697 21.494 10.7596 21.958 10.7596 22.5038C10.7596 23.0496 10.5685 23.5124 10.1865 23.8922C9.80441 24.272 9.34047 24.4619 8.79465 24.4619ZM29.9712 19.711C30.4481 19.8071 30.8461 19.9278 31.1653 20.073C31.4846 20.2182 31.8365 20.4561 32.2211 20.7869V12.2889C32.2211 11.5432 31.9556 10.9048 31.4246 10.3738C30.8936 9.84284 30.2552 9.57734 29.5096 9.57734H20.925L19.35 7.92734L21.45 5.82734L20.4 4.77734L15.075 10.1023L16.2 11.1523L18.3 9.05234L19.875 10.6273V13.5004C19.875 14.484 19.5248 15.3261 18.8243 16.0266C18.1238 16.7271 17.2817 17.0773 16.2981 17.0773H13.0731C13.5038 17.4158 13.8509 17.7523 14.1144 18.0869C14.3778 18.4215 14.6509 18.835 14.9336 19.3273H16.2981C17.9096 19.3273 19.2836 18.759 20.4202 17.6225C21.5567 16.4859 22.125 15.1119 22.125 13.5004V11.8273H29.5096C29.6442 11.8273 29.7548 11.8705 29.8413 11.9571C29.9279 12.0436 29.9712 12.1542 29.9712 12.2889V19.711ZM24.4558 23.6253C24.577 23.133 24.7146 22.73 24.8687 22.4163C25.0228 22.1026 25.2631 21.7557 25.5894 21.3754H15.6144C15.6855 21.8068 15.7211 22.182 15.7211 22.5009C15.7211 22.8198 15.6855 23.1946 15.6144 23.6253H24.4558ZM29.25 29.4234C27.8961 29.4234 26.7452 28.9494 25.7971 28.0013C24.8491 27.0532 24.375 25.9023 24.375 24.5484C24.375 23.1946 24.8491 22.0436 25.7971 21.0956C26.7452 20.1475 27.8961 19.6735 29.25 19.6735C30.6038 19.6735 31.7548 20.1475 32.7028 21.0956C33.6509 22.0436 34.125 23.1946 34.125 24.5484C34.125 25.9023 33.6509 27.0532 32.7028 28.0013C31.7548 28.9494 30.6038 29.4234 29.25 29.4234ZM8.79806 29.4234C6.88269 29.4234 5.25 28.7484 3.9 27.3984C2.55 26.0484 1.875 24.4157 1.875 22.5004C1.875 20.585 2.55 18.9523 3.9 17.6023C5.25 16.2523 6.88269 15.5773 8.79806 15.5773C10.7134 15.5773 12.3461 16.2523 13.6961 17.6023C15.0461 18.9523 15.7211 20.585 15.7211 22.5004C15.7211 24.4157 15.0461 26.0484 13.6961 27.3984C12.3461 28.7484 10.7134 29.4234 8.79806 29.4234Z" fill="#7C7C7C"/>
</svg>
