<svg width="36" height="36" viewBox="0 0 36 36" fill="none" xmlns="http://www.w3.org/2000/svg">
<path d="M20.824 32.6336C20.5452 32.7855 20.2601 32.8096 19.9687 32.7057C19.6774 32.6019 19.4558 32.4105 19.3038 32.1317L16.9096 27.3432C16.7577 27.0644 16.7337 26.7793 16.8375 26.4879C16.9413 26.1966 17.1327 25.975 17.4115 25.8231C17.6903 25.6711 17.9778 25.6495 18.274 25.7582C18.5701 25.8668 18.7942 26.0606 18.9461 26.3394L21.3403 31.1135C21.4922 31.3923 21.5139 31.6774 21.4052 31.9687C21.2966 32.2601 21.1028 32.4817 20.824 32.6336ZM29.8384 32.6336C29.5596 32.7855 29.2745 32.8096 28.9832 32.7057C28.6918 32.6019 28.4702 32.4105 28.3183 32.1317L25.924 27.3432C25.7721 27.0644 25.7481 26.7793 25.8519 26.4879C25.9558 26.1966 26.1471 25.975 26.426 25.8231C26.7048 25.6711 26.9923 25.6495 27.2884 25.7582C27.5846 25.8668 27.8086 26.0606 27.9605 26.3394L30.3548 31.1135C30.5067 31.3923 30.5283 31.6774 30.4197 31.9687C30.311 32.2601 30.1173 32.4817 29.8384 32.6336ZM11.824 32.6336C11.5452 32.7855 11.2577 32.8096 10.9615 32.7057C10.6654 32.6019 10.4413 32.4105 10.2894 32.1317L7.89518 27.3432C7.74325 27.0644 7.72161 26.7793 7.83026 26.4879C7.93891 26.1966 8.13266 25.975 8.41151 25.8231C8.69034 25.6711 8.97543 25.6495 9.26678 25.7582C9.55813 25.8668 9.77975 26.0606 9.93165 26.3394L12.3259 31.1135C12.4778 31.3923 12.5019 31.6774 12.398 31.9687C12.2942 32.2601 12.1028 32.4817 11.824 32.6336ZM11.25 23.625C9.07111 23.625 7.21391 22.8572 5.67836 21.3216C4.14279 19.786 3.375 17.9288 3.375 15.75C3.375 13.7423 4.04566 11.9971 5.38699 10.5144C6.72834 9.03173 8.39709 8.1673 10.3932 7.92113C11.1644 6.50575 12.2197 5.39421 13.5591 4.58651C14.8985 3.77884 16.3788 3.375 18 3.375C20.2019 3.375 22.1053 4.09134 23.7101 5.52401C25.3149 6.95671 26.2682 8.74325 26.5701 10.8836C28.3528 11.0144 29.8076 11.6909 30.9345 12.913C32.0615 14.1351 32.6249 15.5807 32.6249 17.25C32.6249 19.0192 32.0047 20.524 30.7644 21.7644C29.524 23.0047 28.0192 23.6249 26.25 23.6249L11.25 23.625ZM11.25 21.375H26.25C27.3961 21.375 28.3702 20.9741 29.1721 20.1722C29.974 19.3702 30.375 18.3962 30.375 17.25C30.375 16.1039 29.974 15.1298 29.1721 14.3279C28.3702 13.5259 27.3961 13.125 26.25 13.125H24.375V12C24.375 10.2442 23.7514 8.74274 22.5043 7.49561C21.2572 6.24849 19.7557 5.62493 18 5.62493C16.723 5.62493 15.5596 5.97156 14.5096 6.66484C13.4595 7.35811 12.6701 8.28841 12.1413 9.45574L11.8673 10.1249H11.175C9.64419 10.1749 8.33649 10.7422 7.25186 11.8269C6.16724 12.9115 5.62492 14.2192 5.62492 15.75C5.62492 17.3057 6.17349 18.6322 7.27061 19.7293C8.36774 20.8264 9.69419 21.375 11.25 21.375V21.375Z" fill="#7C7C7C"/>
</svg>
