<svg width="15" height="21" viewBox="0 0 15 21" fill="none" xmlns="http://www.w3.org/2000/svg">
<path d="M7.37942 20.0744C5.36946 20.0744 3.66327 19.3732 2.26086 17.9708C0.858439 16.5684 0.157227 14.8622 0.157227 12.8522C0.157227 11.2183 0.644412 9.75788 1.61878 8.47084C2.59313 7.18381 3.86734 6.32448 5.44139 5.89287C5.07102 5.80741 4.70813 5.68027 4.35273 5.51145C3.99732 5.34266 3.68428 5.12292 3.41361 4.85226C2.8595 4.29815 2.50161 3.64075 2.33992 2.88006C2.17824 2.11938 2.12588 1.34659 2.18287 0.561704C2.95351 0.504722 3.71384 0.555296 4.46384 0.713425C5.21382 0.871536 5.86587 1.22054 6.42 1.76043C6.84593 2.16498 7.15255 2.63399 7.33986 3.16745C7.5272 3.70094 7.64508 4.26041 7.6935 4.84587C7.92711 4.28605 8.20988 3.75686 8.54181 3.25829C8.87372 2.75971 9.25263 2.29746 9.67856 1.87154C9.83239 1.71768 10.0275 1.64076 10.264 1.64076C10.5005 1.64076 10.6956 1.71768 10.8494 1.87154C11.0033 2.02537 11.0802 2.22052 11.0802 2.45698C11.0802 2.69344 11.0033 2.8886 10.8494 3.04245C10.4492 3.44273 10.0952 3.87933 9.7875 4.35226C9.4798 4.8252 9.24119 5.32877 9.07167 5.86295C10.7013 6.24614 12.0304 7.08801 13.0589 8.38856C14.0874 9.68914 14.6016 11.177 14.6016 12.8522C14.6016 14.8622 13.9004 16.5684 12.498 17.9708C11.0956 19.3732 9.38938 20.0744 7.37942 20.0744ZM7.37942 18.4078C8.91646 18.4078 10.2266 17.8661 11.31 16.7828C12.3933 15.6995 12.935 14.3893 12.935 12.8522C12.935 11.3152 12.3933 10.005 11.31 8.92168C10.2266 7.83834 8.91646 7.29667 7.37942 7.29667C5.84238 7.29667 4.5322 7.83834 3.44886 8.92168C2.36553 10.005 1.82387 11.3152 1.82387 12.8522C1.82387 14.3893 2.36553 15.6995 3.44886 16.7828C4.5322 17.8661 5.84238 18.4078 7.37942 18.4078Z" fill="#FDCA55"/>
</svg>
